# xmcd
#
# Track frame offsets:
#	150
#	15702
#	33135
#
# Disc length: 637 seconds
# Revision: 1
# Processed by: cddbd v1.5.2PL0 Copyright (c) Steve Scherf et al.
# Submitted via: dBpowerAMP V12.0
#
DISCID=16027b03
DTITLE=The Moffatts - Miss You Like Crazy [Maxi]
DYEAR=1998
DGENRE=Country*
TTITLE0=Miss You Like Crazy (Radio Version)
TTITLE1=Miss You Like Crazy (Long Version)
TTITLE2=Miss You Like Crazy (Unplugged Version)
EXTD=
EXTT0=
EXTT1=
EXTT2=
PLAYORDER=
